PathFileType	4	(X/Y/Z)	/Users/itak/Documents/Research/Walk-IL/dataset/trc/00483_00167.trc
DataRate	CameraRate	NumFrames	NumMarkers	Units	OrigDataRate	OrigDataStartFrame	OrigNumFrames
100.000000	100.000000	4	53	mm	100.000000	0	599
Frame#	Time	RPSI			LPSI			L3			STRN			T10			C7			CLAV			RBAK			LBAK			LSHO			LUPA			LAEL			LAOL			LWTS			LWPS			LFRA			LIFD			LHPS			LHTS			RSHO			RUPA			RAEL			RAOL			RWTS			RWPS			RFRA			RIFD			RHTS			RHPS			RBHD			LFHD			RFHD			LBHD			LHIP			RHIP			RASI			LASI			LKNE			LTHI			LANK			LTIP			LTOE			LMT1			LMT5			LHEE			RKNE			RTHI			RANK			RTIP			RTOE			RMT1			RMT5			RHEE			
		X1	Y1	Z1	X2	Y2	Z2	X3	Y3	Z3	X4	Y4	Z4	X5	Y5	Z5	X6	Y6	Z6	X7	Y7	Z7	X8	Y8	Z8	X9	Y9	Z9	X10	Y10	Z10	X11	Y11	Z11	X12	Y12	Z12	X13	Y13	Z13	X14	Y14	Z14	X15	Y15	Z15	X16	Y16	Z16	X17	Y17	Z17	X18	Y18	Z18	X19	Y19	Z19	X20	Y20	Z20	X21	Y21	Z21	X22	Y22	Z22	X23	Y23	Z23	X24	Y24	Z24	X25	Y25	Z25	X26	Y26	Z26	X27	Y27	Z27	X28	Y28	Z28	X29	Y29	Z29	X30	Y30	Z30	X31	Y31	Z31	X32	Y32	Z32	X33	Y33	Z33	X34	Y34	Z34	X35	Y35	Z35	X36	Y36	Z36	X37	Y37	Z37	X38	Y38	Z38	X39	Y39	Z39	X40	Y40	Z40	X41	Y41	Z41	X42	Y42	Z42	X43	Y43	Z43	X44	Y44	Z44	X45	Y45	Z45	X46	Y46	Z46	X47	Y47	Z47	X48	Y48	Z48	X49	Y49	Z49	X50	Y50	Z50	X51	Y51	Z51	X52	Y52	Z52	X53	Y53	Z53	

1	0	-1270.606201171875	965.2456665039062	-148.3159637451172	-1248.468139648438	963.115478515625	-287.7546997070312	-1247.584106445312	1053.068603515625	-206.0994415283203	-984.5287475585938	1253.061645507812	-176.1883697509766	-1266.134643554688	1176.072509765625	-217.0019226074219	-1208.31201171875	1446.814208984375	-197.8682556152344	-1022.455444335938	1365.704833984375	-185.6059417724609	-1282.513549804688	1325.784057617188	-114.0622329711914	-1227.3076171875	1398.29833984375	-300.286376953125	-1115.28759765625	1420.117309570312	-365.6809692382812	-1113.372314453125	1300.41455078125	-462.9097900390625	-1084.588745117188	1085.895751953125	-492.5185852050781	-1167.587890625	1071.461059570312	-433.0143432617188	-999.8222045898438	887.2862548828125	-444.2537231445312	-1043.187744140625	870.1851196289062	-502.6944885253906	-1061.165161132812	999.1737670898438	-500.6999206542969	-975.2349243164062	736.9873046875	-460.5965270996094	-1033.2607421875	794.0851440429688	-503.1590881347656	-977.601318359375	805.5571899414062	-453.5390625	-1164.392456054688	1418.8056640625	-30.74957084655762	-1194.01904296875	1360.32177734375	42.78969192504883	-1196.820556640625	1076.656005859375	106.0652923583984	-1238.802001953125	1058.58642578125	56.02781295776367	-1091.644775390625	862.0103149414062	94.88867950439453	-1173.612060546875	857.8911743164062	134.8249053955078	-1196.662109375	1018.974914550781	119.3645782470703	-1127.193481445312	704.3866577148438	95.48438262939453	-1102.936889648438	759.9044799804688	100.0823974609375	-1174.965942382812	772.953369140625	130.7083435058594	-1113.5322265625	1652.085571289062	-97.62063598632812	-966.30224609375	1645.488525390625	-243.2761383056641	-975.7958374023438	1648.67578125	-113.0294036865234	-1115.871826171875	1654.480346679688	-275.2782897949219	-1100.324096679688	861.8058471679688	-386.4984130859375	-1180.06884765625	860.88671875	6.065561294555664	-1064.043334960938	897.6712036132812	-37.81737518310547	-1013.275695800781	894.6502685546875	-292.54833984375	-1124.039306640625	445.2403869628906	-366.6125793457031	-1086.329956054688	594.839111328125	-377.8575439453125	-1199.498901367188	40.56645584106445	-383.0108032226562	-1134.90283203125	301.7705688476562	-387.1309509277344	-973.8858032226562	45.26191711425781	-290.7659301757812	-1052.60693359375	51.35943222045898	-269.22216796875	-1044.522583007812	46.28793716430664	-382.3088073730469	-1251.218872070312	44.14285659790039	-323.8602905273438	-1168.13525390625	469.8583068847656	3.953532457351685	-1140.607666015625	729.2943115234375	27.63838958740234	-1229.1474609375	45.76311874389648	31.07103538513184	-1172.356811523438	331.2235412597656	23.46017074584961	-1011.160034179688	47.81218719482422	-5.303115367889404	-1071.384765625	51.19354629516602	-45.06621170043945	-1097.68310546875	49.46087265014648	60.55581665039062	-1291.842163085938	35.56098937988281	-15.91648483276367	
2	0.01	-1270.535766601562	965.2384033203125	-148.2004547119141	-1248.452880859375	963.134765625	-287.6483459472656	-1247.520629882812	1053.060546875	-205.9580841064453	-984.4812622070312	1253.076293945312	-176.138427734375	-1266.110595703125	1176.076171875	-216.7864837646484	-1208.23876953125	1446.83203125	-197.7366333007812	-1022.432067871094	1365.721435546875	-185.5550231933594	-1282.424194335938	1325.7958984375	-113.8620910644531	-1227.338256835938	1398.300659179688	-300.1135559082031	-1115.395385742188	1420.11767578125	-365.5512084960938	-1113.4560546875	1300.432983398438	-462.7838745117188	-1084.655639648438	1085.91455078125	-492.4378662109375	-1167.658081054688	1071.452880859375	-432.8931274414062	-999.893310546875	887.3407592773438	-444.2556762695312	-1043.314697265625	870.1973266601562	-502.6268005371094	-1061.314697265625	999.1988525390625	-500.6454772949219	-975.3742065429688	737.0626831054688	-460.6282653808594	-1033.374145507812	794.158935546875	-503.139892578125	-977.78662109375	805.60546875	-453.5556945800781	-1164.26611328125	1418.79345703125	-30.59282493591309	-1193.880004882812	1360.314331054688	42.93975830078125	-1196.697509765625	1076.677612304688	106.2104644775391	-1238.678100585938	1058.616455078125	56.18181991577148	-1091.631225585938	862.0604858398438	95.16837310791016	-1173.60791015625	857.9301147460938	135.0542602539062	-1196.54345703125	1018.986022949219	119.4782562255859	-1126.894775390625	704.3931884765625	96.05049133300781	-1102.751342773438	759.9714965820312	100.5406723022461	-1174.80224609375	772.9667358398438	131.1410217285156	-1113.125610351562	1652.0634765625	-97.43865203857422	-966.300048828125	1645.468872070312	-243.5210571289062	-975.4541015625	1648.631469726562	-113.279296875	-1115.90576171875	1654.46826171875	-275.10888671875	-1100.301879882812	861.8015747070312	-386.4566955566406	-1179.995849609375	860.8713989257812	6.168848991394043	-1063.900634765625	897.6671142578125	-37.73537063598633	-1013.25048828125	894.6521606445312	-292.5069885253906	-1123.942626953125	445.2393798828125	-366.5168151855469	-1086.327026367188	594.8489379882812	-377.8315124511719	-1199.501098632812	40.57135009765625	-383.007568359375	-1134.904907226562	301.7680358886719	-387.1022033691406	-973.8817749023438	45.25688934326172	-290.7664489746094	-1052.614624023438	51.34275817871094	-269.2235717773438	-1044.5283203125	46.29364776611328	-382.3074645996094	-1251.214599609375	44.13653945922852	-323.8511047363281	-1168.123046875	469.8478698730469	3.98607611656189	-1140.452514648438	729.3057861328125	27.73592567443848	-1229.16015625	45.75515747070312	31.07755851745605	-1172.361206054688	331.2080993652344	23.4825382232666	-1011.180847167969	47.82951736450195	-5.299997806549072	-1071.383544921875	51.19221878051758	-45.06597137451172	-1097.683837890625	49.45526504516602	60.55608367919922	-1291.842651367188	35.55086898803711	-15.91587162017822	
3	0.02	-1270.451904296875	965.227294921875	-148.0570983886719	-1248.433349609375	963.156005859375	-287.5102233886719	-1247.447143554688	1053.051879882812	-205.781982421875	-984.417724609375	1253.087524414062	-176.0755615234375	-1266.072143554688	1176.080444335938	-216.5297393798828	-1208.145874023438	1446.852416992188	-197.5592803955078	-1022.399047851562	1365.7373046875	-185.4891204833984	-1282.308349609375	1325.805053710938	-113.6224746704102	-1227.378173828125	1398.308227539062	-299.877685546875	-1115.522094726562	1420.120727539062	-365.3825988769531	-1113.549438476562	1300.457275390625	-462.6327514648438	-1084.760131835938	1085.94775390625	-492.3414916992188	-1167.754760742188	1071.447387695312	-432.7448425292969	-999.9932861328125	887.4065551757812	-444.2687683105469	-1043.476928710938	870.2256469726562	-502.5602416992188	-1061.496948242188	999.2367553710938	-500.5889587402344	-975.5656127929688	737.1731567382812	-460.6942443847656	-1033.532836914062	794.2617797851562	-503.1372985839844	-978.007568359375	805.6725463867188	-453.5930480957031	-1164.107299804688	1418.773193359375	-30.39632225036621	-1193.701049804688	1360.299682617188	43.12485885620117	-1196.55126953125	1076.69677734375	106.4048919677734	-1238.530029296875	1058.64404296875	56.38145065307617	-1091.605102539062	862.1260986328125	95.52417755126953	-1173.585083007812	857.983154296875	135.3500213623047	-1196.39990234375	1018.998352050781	119.6362686157227	-1126.50830078125	704.4076538085938	96.81603240966797	-1102.502685546875	760.0589599609375	101.1539993286133	-1174.598510742188	772.9942626953125	131.7178649902344	-1112.596923828125	1652.028198242188	-97.2081298828125	-966.2864990234375	1645.441162109375	-243.8244018554688	-975.0130004882812	1648.557861328125	-113.5836334228516	-1115.935546875	1654.470581054688	-274.8894653320312	-1100.259399414062	861.7889404296875	-386.4022827148438	-1179.899047851562	860.8525390625	6.292858123779297	-1063.721435546875	897.662841796875	-37.63598251342773	-1013.221435546875	894.652587890625	-292.4544067382812	-1123.851196289062	445.241455078125	-366.4257202148438	-1086.321655273438	594.8609619140625	-377.7992553710938	-1199.5029296875	40.57694244384766	-383.0017395019531	-1134.898803710938	301.7674255371094	-387.0610961914062	-973.8762817382812	45.2509880065918	-290.7677612304688	-1052.620727539062	51.32648086547852	-269.2248229980469	-1044.535522460938	46.30120468139648	-382.3055725097656	-1251.212768554688	44.13174819946289	-323.8424987792969	-1168.100952148438	469.8344421386719	4.025472164154053	-1140.263671875	729.3123168945312	27.84879493713379	-1229.175903320312	45.74642181396484	31.08477973937988	-1172.361328125	331.1900939941406	23.51344108581543	-1011.201782226562	47.84547424316406	-5.298455238342285	-1071.383422851562	51.19146728515625	-45.06577301025391	-1097.684326171875	49.4495735168457	60.55611801147461	-1291.844360351562	35.54105377197266	-15.91296100616455	
4	0.03	-1270.359619140625	965.2117309570312	-147.8932037353516	-1248.409545898438	963.1764526367188	-287.3462829589844	-1247.36962890625	1053.044677734375	-205.5781097412109	-984.3389892578125	1253.091552734375	-176.0024719238281	-1266.017578125	1176.085083007812	-216.2479248046875	-1208.037231445312	1446.87353515625	-197.3372955322266	-1022.35595703125	1365.74951171875	-185.4101104736328	-1282.169555664062	1325.808471679688	-113.3569412231445	-1227.423706054688	1398.322509765625	-299.5825805664062	-1115.656860351562	1420.127319335938	-365.1811218261719	-1113.645141601562	1300.486572265625	-462.4649658203125	-1084.906860351562	1085.997924804688	-492.2369689941406	-1167.8779296875	1071.44873046875	-432.5765686035156	-1000.123901367188	887.4794921875	-444.29736328125	-1043.670166015625	870.2743530273438	-502.5064697265625	-1061.702514648438	999.2879028320312	-500.5383911132812	-975.8047485351562	737.3213500976562	-460.804931640625	-1033.727661132812	794.385986328125	-503.1557006835938	-978.250732421875	805.75830078125	-453.6580200195312	-1163.922607421875	1418.74365234375	-30.16743659973145	-1193.487060546875	1360.276733398438	43.33636474609375	-1196.3916015625	1076.71044921875	106.6471786499023	-1238.366577148438	1058.66357421875	56.6226806640625	-1091.559814453125	862.205322265625	95.94496154785156	-1173.535034179688	858.0494384765625	135.7049560546875	-1196.240112304688	1019.01123046875	119.842041015625	-1126.048095703125	704.4313354492188	97.76365661621094	-1102.196166992188	760.1634521484375	101.9053802490234	-1174.359619140625	773.0387573242188	132.4218292236328	-1111.9599609375	1651.980102539062	-96.93941497802734	-966.2556762695312	1645.40234375	-244.1728210449219	-974.4832763671875	1648.448120117188	-113.9254684448242	-1115.953979492188	1654.494018554688	-274.626708984375	-1100.195190429688	861.7677612304688	-386.3348693847656	-1179.7802734375	860.8306884765625	6.428160190582275	-1063.513305664062	897.65869140625	-37.52518844604492	-1013.1904296875	894.65087890625	-292.3934936523438	-1123.777221679688	445.2468566894531	-366.351318359375	-1086.31298828125	594.8742065429688	-377.7631225585938	-1199.503784179688	40.5827522277832	-382.9927978515625	-1134.881591796875	301.7698974609375	-387.0084533691406	-973.8694458007812	45.24483108520508	-290.7694396972656	-1052.624267578125	51.3125	-269.2255859375	-1044.543823242188	46.31024169921875	-382.3030700683594	-1251.215087890625	44.12933349609375	-323.8363342285156	-1168.066772460938	469.8184204101562	4.070196628570557	-1140.052856445312	729.3099975585938	27.96771812438965	-1229.193237304688	45.73761749267578	31.09207153320312	-1172.355834960938	331.1708679199219	23.55232048034668	-1011.220825195312	47.85824966430664	-5.298704147338867	-1071.384643554688	51.19147872924805	-45.06560134887695	-1097.684448242188	49.44408416748047	60.55607986450195	-1291.847534179688	35.53302383422852	-15.90740013122559	
